HIERARCHY
ROOT hip
{
	OFFSET 0.000000 0.000000 0.000000 
	CHANNELS 6 Xposition Yposition Zposition Zrotation Xrotation Yrotation
	JOINT abdomen
	{
		OFFSET 0.000000 3.402643 0.000000 
		CHANNELS 3 Zrotation Xrotation Yrotation
		JOINT chest
		{
			OFFSET 0.000000 8.438565 -0.680529 
			CHANNELS 3 Zrotation Xrotation Yrotation
			JOINT neck
			{
				OFFSET 0.000000 10.207942 -0.272212 
				CHANNELS 3 Zrotation Xrotation Yrotation
				JOINT head
				{
					OFFSET 0.000000 3.130431 0.000000 
					CHANNELS 3 Zrotation Xrotation Yrotation
					End Site
					{
						OFFSET 0.000000 3.130435 0.000000 
					}
				}
			}
			JOINT lCollar
			{
				OFFSET 3.470700 6.669187 -0.816635 
				CHANNELS 3 Zrotation Xrotation Yrotation
				JOINT lShldr
				{
					OFFSET 3.198488 0.000000 0.000000 
					CHANNELS 3 Zrotation Xrotation Yrotation
					JOINT lForeArm
					{
						OFFSET 10.139888 0.000000 0.000000 
						CHANNELS 3 Zrotation Xrotation Yrotation
						JOINT lHand
						{
							OFFSET 8.370511 0.000000 0.000000 
							CHANNELS 3 Zrotation Xrotation Yrotation
							End Site
							{
								OFFSET 4.083176 0.000000 0.000000 
							}
						}
					}
				}
			}
			JOINT rCollar
			{
				OFFSET -3.470700 6.669187 -0.816635 
				CHANNELS 3 Zrotation Xrotation Yrotation
				JOINT rShldr
				{
					OFFSET -3.198488 0.000000 0.000000 
					CHANNELS 3 Zrotation Xrotation Yrotation
					JOINT rForeArm
					{
						OFFSET -10.139888 0.000000 0.000000 
						CHANNELS 3 Zrotation Xrotation Yrotation
						JOINT rHand
						{
							OFFSET -8.370511 0.000000 0.000000 
							CHANNELS 3 Zrotation Xrotation Yrotation
							End Site
							{
								OFFSET -4.083176 0.000000 0.000000 
							}
						}
					}
				}
			}
		}
	}
	JOINT lThigh
	{
		OFFSET 5.308129 -1.633274 1.361059 
		CHANNELS 3 Zrotation Xrotation Yrotation
		JOINT lShin
		{
			OFFSET -2.041588 -20.007561 0.000000 
			CHANNELS 3 Zrotation Xrotation Yrotation
			JOINT lFoot
			{
				OFFSET 0.000000 -19.190928 -1.224953 
				CHANNELS 3 Zrotation Xrotation Yrotation
				End Site
				{
					OFFSET 0.000000 -2.449906 4.627600 
				}
			}
		}
	}
	JOINT rThigh
	{
		OFFSET -5.308129 -1.633274 1.361059 
		CHANNELS 3 Zrotation Xrotation Yrotation
		JOINT rShin
		{
			OFFSET 2.041588 -20.007561 0.000000 
			CHANNELS 3 Zrotation Xrotation Yrotation
			JOINT rFoot
			{
				OFFSET 0.000000 -19.190928 -1.224953 
				CHANNELS 3 Zrotation Xrotation Yrotation
				End Site
				{
					OFFSET 0.000000 -2.449906 4.627600 
				}
			}
		}
	}
}
MOTION
Frames: 16
Frame Time: 0.016667
15.301500 43.536087 14.907700 1.289060 1.064450 -47.062996 8.059030 17.857500 -4.298510 4.059970 -17.494499 -2.923980 -14.116600 14.647700 5.846120 7.752510 14.345300 1.805360 -1.998780 -0.069785 1.998780 -63.785400 -29.563900 -72.725304 -1.191170 -2.511390 -47.444401 -0.017564 61.922001 -0.034022 1.998780 -0.069785 -1.998780 71.448303 16.399000 15.410900 -1.570180 -3.388950 127.737000 0.062746 36.800999 -0.012546 2.778110 -29.862600 4.908080 2.242040 57.480202 2.019680 3.381570 -19.682899 6.006680 -15.748300 -12.776000 21.178301 -4.409500 54.171101 0.262642 -0.454914 -1.418080 -2.127460 
15.403500 43.591686 15.156100 1.523430 1.503910 -46.691898 8.112250 17.894100 -4.297440 4.439040 -17.534401 -2.873600 -14.199600 14.320400 5.839590 7.673340 14.365400 1.713520 -1.998780 -0.069785 1.998780 -66.108902 -26.978901 -69.517502 -1.433080 -2.258440 -57.428799 -0.009414 63.250000 -0.043644 1.998780 -0.069785 -1.998780 71.527000 15.376200 14.602500 -1.519260 -3.439890 129.798004 0.062205 37.055000 -0.011702 2.558540 -30.327999 4.272860 2.188430 57.433102 2.063010 2.993060 -19.597799 5.019060 -15.825600 -12.172100 21.031500 -4.445810 52.722500 0.288983 -0.584956 -1.881660 -2.860030 
15.505600 43.647388 15.404600 1.767580 1.943360 -46.330597 8.155270 17.931200 -4.302600 4.824240 -17.584000 -2.833540 -14.265700 13.999700 5.829070 7.584240 14.385600 1.622410 -1.998780 -0.069785 1.998780 -68.526497 -24.513300 -66.257202 -1.627400 -1.967420 -67.410301 -0.000279 64.587997 -0.054253 1.998780 -0.069785 -1.998780 71.588303 14.350600 13.787100 -1.466530 -3.488990 131.860992 0.061659 37.308998 -0.010853 2.332600 -30.779600 3.662320 2.174030 57.374500 2.065400 2.614080 -19.496099 4.047330 -15.990100 -11.546200 20.859900 -4.501610 51.399200 0.346967 -0.660948 -2.526810 -3.560460 
15.512800 43.731087 15.542400 1.679690 2.402350 -44.728996 8.290330 17.768299 -4.271540 5.176450 -17.742500 -2.692830 -14.336500 13.952900 5.524670 7.574990 14.473600 1.476390 -1.998780 -0.069785 1.998780 -70.330399 -20.169901 -63.327702 -1.740740 -1.723200 -75.085098 -0.000207 64.598000 -0.054335 1.998780 -0.069785 -1.998780 71.353996 13.314100 15.315300 -1.422790 -3.527150 133.522995 0.059780 38.158001 -0.007965 2.192480 -31.016001 2.692020 2.195230 56.874401 2.051660 2.080930 -19.454399 2.696700 -15.653600 -10.371200 19.833599 -4.553370 50.529499 0.377948 -0.752174 -3.119150 -4.359800 
15.520100 43.814789 15.680200 1.591800 2.861330 -43.127499 8.415410 17.615499 -4.236990 5.542160 -17.891300 -2.542200 -14.415400 13.912000 5.204620 7.575730 14.571200 1.339400 -1.998780 -0.069785 1.998780 -72.328499 -15.921300 -60.327499 -1.820500 -1.465710 -82.768097 -0.000207 64.598000 -0.054335 1.998780 -0.069785 -1.998780 71.147797 12.271300 16.834999 -1.377950 -3.564010 135.184998 0.057847 38.998001 -0.005042 2.039300 -31.243000 1.715970 2.247310 56.382099 1.991690 1.580880 -19.418900 1.369940 -15.284200 -9.209310 18.811701 -4.640550 49.724800 0.450709 -0.873410 -3.748650 -5.161040 
15.400500 43.928787 15.756100 1.826170 3.056640 -41.086395 8.520820 17.669001 -4.127050 5.544570 -18.061300 -2.257180 -14.130200 14.088600 4.431620 7.724730 14.599500 1.144000 -1.998780 -0.069785 1.998780 -73.550003 -10.808400 -57.509800 -1.859290 -1.251640 -88.966400 -0.012084 62.830002 -0.040509 1.998780 -0.069785 -1.998780 70.936996 11.316500 20.369801 -1.345650 -3.589260 136.358002 0.056570 39.535000 -0.003135 1.442380 -31.102900 1.048380 2.278490 55.047600 1.937260 1.192680 -19.314800 0.390875 -14.962000 -7.955000 17.707500 -4.698430 49.059502 0.512412 -1.033100 -4.957100 -5.866720 
15.280900 44.042889 15.832100 2.060550 3.251950 -39.045403 8.636530 17.721901 -4.010890 5.547180 -18.230801 -1.972490 -13.846000 14.243200 3.633590 7.873670 14.617900 0.947355 -1.998780 -0.069785 1.998780 -75.022797 -5.758260 -54.630299 -1.855230 -1.035180 -95.173500 -0.022462 61.053001 -0.028156 1.998780 -0.069785 -1.998780 70.783798 10.345000 23.895901 -1.312850 -3.613840 137.531998 0.055283 40.063000 -0.001232 0.847890 -30.903299 0.378572 2.318580 53.772099 1.893300 0.792104 -19.308100 -0.594422 -14.654000 -6.640190 16.587299 -4.754440 48.413601 0.574678 -1.219100 -6.234930 -6.571250 
15.159200 44.155888 15.824400 2.148440 3.662110 -36.447796 8.287050 17.514299 -3.528480 5.529350 -18.481800 -1.244400 -13.673800 14.310800 2.597970 8.013400 14.724300 0.594877 -1.998780 -0.069785 1.998780 -75.705299 -0.395610 -52.271801 -1.851180 -0.868474 -99.945900 -0.012689 62.733002 -0.039795 1.998780 -0.069785 -1.998780 69.862000 8.026340 28.608700 -1.307880 -3.617460 137.707993 0.050618 41.868999 0.005521 0.206807 -31.087099 -0.997990 2.365780 52.632198 1.815830 0.420830 -18.962200 -1.494460 -13.772000 -5.418670 15.023300 -4.737970 47.736000 0.541620 -1.624960 -7.697980 -8.093460 
15.037400 44.268887 15.816700 2.207030 4.082030 -33.840397 7.938490 17.305901 -3.036550 5.522080 -18.729700 -0.515117 -13.489300 14.354400 1.561190 8.153090 14.820800 0.243739 -1.998780 -0.069785 1.998780 -76.609596 4.932490 -49.834702 -1.833270 -0.702685 -104.718002 -0.001468 64.421997 -0.052882 1.998780 -0.069785 -1.998780 69.138298 5.642520 33.266998 -1.303180 -3.620880 137.873993 0.055205 43.666000 -0.000852 -0.426753 -31.221001 -2.406000 2.390420 51.356400 1.770020 0.073558 -18.531900 -2.397550 -12.854400 -4.234180 13.435400 -4.745270 47.065102 0.549841 -2.096250 -9.154410 -9.617020 
14.931000 44.344090 15.692700 2.216790 4.648430 -31.252501 6.637420 17.243999 -2.114790 5.075100 -18.778700 0.464733 -13.337200 14.305300 0.191889 8.194500 15.025600 -0.189612 -1.998780 -0.069785 1.998780 -75.972900 9.412920 -48.640900 -1.811990 -0.585220 -108.134003 -0.001814 64.373001 -0.052482 1.998780 -0.069785 -1.998780 68.078201 1.889530 40.142300 -1.390720 -3.553730 134.714996 0.055613 43.509998 -0.001453 -0.919696 -31.899300 -3.951910 2.383860 50.680500 1.773840 -0.253550 -17.959999 -3.259980 -11.541800 -3.595580 11.635700 -4.677940 46.608398 0.486665 -2.965320 -10.662200 -12.202400 
14.824600 44.419388 15.568600 2.197260 5.224610 -28.664598 5.337520 17.172300 -1.191020 4.628270 -18.831900 1.444060 -13.182300 14.252700 -1.163680 8.226000 15.230400 -0.630650 -1.998780 -0.069785 1.998780 -75.420502 13.902600 -47.467098 -1.783760 -0.469236 -111.549004 -0.002090 64.334000 -0.052163 1.998780 -0.069785 -1.998780 67.471397 -1.960190 46.941898 -1.474660 -3.481660 131.548004 0.056043 43.344002 -0.002087 -1.424110 -32.551102 -5.508030 2.385850 49.993500 1.744170 -0.564157 -17.360701 -4.105310 -10.241100 -2.917100 9.820460 -4.598180 46.172001 0.430372 -3.915560 -12.213800 -14.854700 
14.697500 44.434986 15.339900 2.060540 5.615230 -26.555199 3.547520 17.013800 0.003074 4.024000 -18.827000 2.671390 -12.365700 14.372000 -3.026380 8.542870 15.140100 -1.122910 -1.998780 -0.069785 1.998780 -74.028397 17.249399 -47.136700 -1.759290 -0.387200 -113.999001 -0.010603 63.064999 -0.042249 1.998780 -0.069785 -1.998780 66.246696 -5.977530 54.933399 -1.717310 -3.218020 121.277000 0.055435 43.577999 -0.001191 -1.549750 -33.320099 -6.340510 2.379100 49.779099 1.772350 -0.889614 -16.636801 -5.222400 -8.814730 -2.493390 8.347050 -4.500060 45.748402 0.329404 -5.212000 -14.229800 -17.219200 
14.570400 44.450489 15.111100 1.904290 5.996090 -24.445898 1.761100 16.807301 1.196830 3.422990 -18.822800 3.909270 -11.556900 14.464000 -4.897320 8.859580 15.039700 -1.613740 -1.998780 -0.069785 1.998780 -72.625099 20.603001 -46.883598 -1.731330 -0.306283 -116.447998 -0.018244 61.805000 -0.033211 1.998780 -0.069785 -1.998780 65.592796 -10.128200 62.913601 -1.908770 -2.915700 111.018997 0.054819 43.813000 -0.000285 -1.695620 -34.097301 -7.170720 2.381880 49.582500 1.755970 -1.199470 -15.910000 -6.333100 -7.380500 -1.996810 6.856400 -4.406160 45.303699 0.258361 -6.599630 -16.263800 -19.678499 
14.425300 44.419487 14.875000 2.167970 6.279300 -23.068899 -0.030504 16.630899 2.305650 2.607540 -18.932800 4.954670 -11.185800 14.741600 -6.186710 9.088020 15.057200 -1.961610 -1.998780 -0.069785 1.998780 -71.425102 22.209499 -46.818802 -1.706180 -0.241746 -118.430000 -0.017450 61.941002 -0.034157 1.998780 -0.069785 -1.998780 64.845802 -13.602200 72.116302 -2.111960 -2.269570 91.538902 0.039167 48.959000 0.021591 -1.900830 -34.919701 -7.249700 2.373490 49.514400 1.764710 -1.446230 -15.292100 -7.465300 -6.597550 -2.078470 5.743160 -4.379570 45.257099 0.232987 -8.173450 -18.326099 -21.975901 
14.280200 44.388588 14.638900 2.431640 6.572270 -21.692001 -1.817620 16.416100 3.413180 1.795780 -19.045700 6.012160 -10.812400 14.995400 -7.484490 9.316360 15.065000 -2.309430 -1.998780 -0.069785 1.998780 -70.217796 23.810801 -46.779598 -1.678860 -0.178143 -120.411003 -0.016648 62.077999 -0.035111 1.998780 -0.069785 -1.998780 64.696701 -17.142500 81.439903 -2.106910 -1.589370 72.058601 0.018244 54.115002 0.048544 -2.116740 -35.771702 -7.353270 2.327800 49.458099 1.809740 -1.684710 -14.673300 -8.582480 -5.802790 -2.345740 4.619760 -4.365640 45.219700 0.203690 -9.852550 -20.176399 -24.328501 
14.119200 44.302387 14.441500 2.548830 6.826180 -20.100201 -2.790200 16.285601 3.999450 1.369940 -19.162800 6.554710 -11.160500 14.963100 -7.712290 9.218260 15.183000 -2.478210 -1.998780 -0.069785 1.998780 -70.200600 24.412901 -46.702801 -1.660350 -0.138211 -121.669998 -0.020355 61.433998 -0.030688 1.998780 -0.069785 -1.998780 61.749901 -20.312901 88.069000 -1.852150 -0.948463 52.330200 0.012867 55.219002 0.055187 -2.319570 -36.374298 -7.652610 2.316860 49.223202 1.812020 -2.007230 -14.315700 -9.875100 -5.192830 -2.166940 3.205060 -4.347440 44.994202 0.205386 -11.256100 -22.262699 -25.538601 
